<svg enable-background="new 0 0 515.01 515.01" version="1.1" viewBox="0 0 515.01 515.01" xml:space="preserve" xmlns="http://www.w3.org/2000/svg">
	<path d="m474.12 404.87h-28.101v-205.85h68.99l-257.5-188.86-257.5 188.86h68.99v205.85h-28.101c-16.289 0-29.539 13.25-29.539 29.538v70.433h492.31v-70.433c1e-3 -16.288-13.249-29.538-29.538-29.538zm-413.98-225.54 197.36-144.74 197.36 144.74h-394.72zm366.18 19.692v205.85h-51.774v-205.85h51.774zm-71.466 0v205.85h-51.774v-205.85h51.774zm-71.467 0v205.85h-51.774v-205.85h51.774zm-71.466 0v205.85h-51.779v-205.85h51.779zm-71.471 0v205.85h-51.774v-205.85h51.774zm343.51 286.12h-452.92v-50.74c0-5.433 4.418-9.846 9.846-9.846h433.23c5.428 0 9.846 4.414 9.846 9.846v50.74z" />
	<path d="m257.5 80.322c-22.168 0-40.207 17.913-40.207 39.923s18.038 39.923 40.207 39.923 40.207-17.913 40.207-39.923c0-22.009-18.039-39.923-40.207-39.923zm0 60.154c-11.313 0-20.514-9.077-20.514-20.231s9.202-20.231 20.514-20.231c11.313 0 20.514 9.077 20.514 20.231s-9.202 20.231-20.514 20.231z" />
</svg>