<svg enable-background="new 0 0 58.365 58.365" version="1.1" viewBox="0 0 58.365 58.365" xml:space="preserve" xmlns="http://www.w3.org/2000/svg">
  <path d="m57.863 26.632-8.681-8.061v-13.206h-10v3.921l-10-9.286-28.68 26.632c-0.404 0.376-0.428 1.009-0.052 1.414 0.375 0.404 1.008 0.427 1.414 0.052l3.319-3.082v33.349h48v-33.35l3.319 3.082c0.192 0.179 0.437 0.267 0.681 0.267 0.269 0 0.536-0.107 0.732-0.319 0.376-0.404 0.352-1.037-0.052-1.413zm-16.681-19.267h6v9.349l-6-5.571v-3.778zm-18 49v-21.063c0-0.517 0.42-0.937 0.937-0.937h10.126c0.517 0 0.937 0.42 0.937 0.937v21.063h-12zm28 0h-14v-21.063c0-1.62-1.317-2.937-2.937-2.937h-10.126c-1.62 0-2.937 1.317-2.937 2.937v21.063h-14v-33.207l22-20.429 14.28 13.26 7.72 7.168v33.208z" />
</svg>