<svg enable-background="new 0 0 270.189 270.189" version="1.1" viewBox="0 0 270.19 270.19" xml:space="preserve" xmlns="http://www.w3.org/2000/svg">
	<path d="m262.69 57.705h-255.19c-4.142 0-7.5 3.357-7.5 7.5v115.19c0 4.143 3.358 7.5 7.5 7.5h255.19c4.143 0 7.5-3.357 7.5-7.5v-115.19c0-4.142-3.357-7.5-7.5-7.5zm-7.5 115.19h-240.19v-100.19h240.19v100.19z" />
	<rect x="32.296" y="88.344" width="39.808" height="15" />
	<rect x="81.868" y="88.344" width="39.808" height="15" />
	<rect x="32.296" y="143.48" width="39.808" height="15" />
	<rect x="81.868" y="143.48" width="39.808" height="15" />
	<rect x="32.296" y="115.2" width="39.808" height="15" />
	<rect x="81.868" y="115.2" width="39.808" height="15" />
	<path d="m78.104 197.48h-39.808c-4.142 0-7.5 3.357-7.5 7.5s3.358 7.5 7.5 7.5h39.808c4.142 0 7.5-3.357 7.5-7.5 0-4.142-3.358-7.5-7.5-7.5z" />
	<path d="m231.89 197.48h-39.808c-4.143 0-7.5 3.357-7.5 7.5s3.357 7.5 7.5 7.5h39.808c4.143 0 7.5-3.357 7.5-7.5 0-4.142-3.358-7.5-7.5-7.5z" />
	<path d="m192.18 162.49c21.887 0 39.693-17.808 39.693-39.695s-17.807-39.695-39.693-39.695c-21.888 0-39.695 17.808-39.695 39.695s17.807 39.695 39.695 39.695zm0-64.39c13.616 0 24.693 11.078 24.693 24.695s-11.077 24.695-24.693 24.695c-13.617 0-24.695-11.078-24.695-24.695s11.077-24.695 24.695-24.695z" />
</svg>