<svg
  width="24"
  height="24"
  viewBox="0 0 98.912003 71.819999"
  xml:space="preserve" xmlns="http://www.w3.org/2000/svg"
>
  <path
    d="M 11.2,22.54 C 8.0267,22.54 5.3667,21.4667 3.22,19.32 1.0733,17.08 0,14.4667 0,11.48 0,8.3067 1.0733,5.6 3.22,3.36 5.3667,1.12 8.0267,0 11.2,0 c 3.1733,0 5.8333,1.12 7.98,3.36 2.1467,2.24 3.22,4.9467 3.22,8.12 0,2.9867 -1.0733,5.6 -3.22,7.84 -2.1467,2.1467 -4.8067,3.22 -7.98,3.22 z m 0,49.28 C 8.0267,71.82 5.3667,70.747 3.22,68.6 1.0733,66.36 0,63.747 0,60.76 0,57.587 1.0733,54.88 3.22,52.64 5.3667,50.4 8.0267,49.28 11.2,49.28 c 3.1733,0 5.8333,1.12 7.98,3.36 2.1467,2.24 3.22,4.947 3.22,8.12 0,2.987 -1.0733,5.6 -3.22,7.84 -2.1467,2.147 -4.8067,3.22 -7.98,3.22 z"
    id="path2"
    style="fill:#ff4a11" />
  <path
    d="m 98.912,32.44 v 6.58 l -54.1804,31.5 -4.2,-7.56 L 89.112,35.66 40.5316,8.5 l 4.2,-7.56 z"
    id="path4"
    style="fill:#ff4a11" />
</svg>